<?xml version="1.0" encoding="UTF-8"?>
<svg width="49px" height="26px" viewBox="0 0 49 26" version="1.1" xmlns="http://www.w3.org/2000/svg" xmlns:xlink="http://www.w3.org/1999/xlink">
    <!-- Generator: Sketch 47.1 (45422) - http://www.bohemiancoding.com/sketch -->
    <title>Combined Shape</title>
    <desc>Created with Sketch.</desc>
    <defs></defs>
    <g id="Page-1" stroke="none" stroke-width="1" fill="none" fill-rule="evenodd">
        <g id="Desktop-HD" transform="translate(-661.000000, -419.000000)" fill="#FFFFFF">
            <g id="Landing">
                <path d="M671.69136,434.806114 L671.69136,404.970049 C671.69136,404.019395 670.920703,403.248737 669.970049,403.248737 L669.970049,403.248737 L669.970049,403.248737 C669.019395,403.248737 668.248737,404.019395 668.248737,404.970049 L668.248737,404.970049 L668.248737,435.953655 C668.248737,436.576018 668.579033,437.121236 669.073896,437.423579 C669.376239,437.918441 669.921457,438.248737 670.543819,438.248737 L670.543819,438.248737 L701.527426,438.248737 C702.47808,438.248737 703.248737,437.47808 703.248737,436.527426 C703.248737,435.576772 702.47808,434.806114 701.527426,434.806114 L671.69136,434.806114 Z" id="Combined-Shape" transform="translate(685.748737, 420.748737) rotate(315.000000) translate(-685.748737, -420.748737) "></path>
            </g>
        </g>
    </g>
</svg>