<?xml version="1.0" encoding="UTF-8"?>
<svg width="43px" height="23px" viewBox="0 0 43 23" version="1.1" xmlns="http://www.w3.org/2000/svg" xmlns:xlink="http://www.w3.org/1999/xlink">
    <!-- Generator: Sketch 47.1 (45422) - http://www.bohemiancoding.com/sketch -->
    <title>Combined Shape</title>
    <desc>Created with Sketch.</desc>
    <defs></defs>
    <g id="Page-2" stroke="none" stroke-width="1" fill="none" fill-rule="evenodd" fill-opacity="0.699999988">
        <g id="Home-Copy-12" transform="translate(-699.000000, -360.000000)" fill="#000000">
            <g id="Intro" transform="translate(0.000000, -195.000000)">
                <g id="Kicker" transform="translate(226.000000, 384.000000)">
                    <path d="M482.103553,185.25 L482.103553,159.25 C482.103553,158.421573 481.431981,157.75 480.603553,157.75 C479.775126,157.75 479.103553,158.421573 479.103553,159.25 L479.103553,159.25 L479.103553,186.25 C479.103553,186.792345 479.391383,187.267463 479.82262,187.530934 C480.08609,187.962171 480.561209,188.25 481.103553,188.25 L508.103553,188.25 C508.931981,188.25 509.603553,187.578427 509.603553,186.75 C509.603553,185.921573 508.931981,185.25 508.103553,185.25 L482.103553,185.25 Z" id="Combined-Shape" transform="translate(494.353553, 173.000000) rotate(315.000000) translate(-494.353553, -173.000000) "></path>
                </g>
            </g>
        </g>
    </g>
</svg>