<?xml version="1.0" encoding="UTF-8"?>
<svg width="152px" height="148px" viewBox="0 0 152 148" version="1.1" xmlns="http://www.w3.org/2000/svg" xmlns:xlink="http://www.w3.org/1999/xlink">
    <!-- Generator: Sketch 47.1 (45422) - http://www.bohemiancoding.com/sketch -->
    <title>Combined Shape</title>
    <desc>Created with Sketch.</desc>
    <defs></defs>
    <g id="Page-2" stroke="none" stroke-width="1" fill="none" fill-rule="evenodd" stroke-linecap="round" stroke-linejoin="round">
        <g id="Home-Copy-12" transform="translate(-224.000000, -3291.000000)" stroke="#000000" stroke-width="2" fill="#B9F2FF">
            <g id="Group-3" transform="translate(117.000000, 2996.000000)">
                <g id="Skills" transform="translate(108.000000, 286.000000)">
                    <g id="Design">
                        <g id="Copy">
                            <g id="SketchIcon" transform="translate(0.000000, 10.000000)">
                                <path d="M77.0833555,143.245419 L75.9646591,146.02927 L31.7326212,35.9588349 L119.514664,35.9588349 L150,35.9588349 L76.0750206,145.836621 L77.0833555,143.245419 Z M112.930649,0.53898897 L112.821009,-2.48689958e-14 L148.849932,35.3109171 L120.123974,35.3584952 L120.202216,35.7372265 L76.511853,0.0858708658 L112.824615,0.0257269085 L112.930649,0.53898897 Z M75.9646591,0.45224286 L120.196697,35.9588349 L31.7326212,35.9588349 L75.9646591,0.45224286 Z M0.0866439296,35.8316312 L31.254012,35.8316312 L75.8912664,145.980889 L0.0866439296,35.8316312 Z M112.930649,0.53898897 L120.013606,35.358678 L120.123974,35.3584952 L112.930649,0.53898897 Z M1.91846539e-13,35.4109455 L34.9717692,0.503856418 L31.1536634,35.4625445 L1.91846539e-13,35.4109455 Z M35.9203106,0.346474903 L75.6721539,0.0787642816 L31.5529326,35.2878932 L35.9203106,0.346474903 Z M77.0833555,143.245419 L120.196697,35.9588349 L119.514664,35.9588349 L118.832632,35.9588349 L77.0833555,143.245419 Z" id="Combined-Shape"></path>
                            </g>
                        </g>
                    </g>
                </g>
            </g>
        </g>
    </g>
</svg>