<?xml version="1.0" encoding="UTF-8"?>
<svg width="51px" height="56px" viewBox="0 0 51 56" version="1.1" xmlns="http://www.w3.org/2000/svg" xmlns:xlink="http://www.w3.org/1999/xlink">
    <!-- Generator: Sketch 47.1 (45422) - http://www.bohemiancoding.com/sketch -->
    <title>OPSICON</title>
    <desc>Created with Sketch.</desc>
    <defs></defs>
    <g id="Page-1" stroke="none" stroke-width="1" fill="none" fill-rule="evenodd">
        <g id="Home" transform="translate(-136.000000, -2031.000000)" fill="#000000">
            <g id="Skills" transform="translate(25.000000, 1647.000000)">
                <g id="DevOps" transform="translate(0.000000, 381.000000)">
                    <g id="OPSICON" transform="translate(105.000000, 0.000000)">
                        <path d="M42.5069837,44.7253554 C42.0115798,46.6549335 41.205985,48.4611645 40.1461241,50.0884442 C39.4151798,49.5964149 38.5335102,49.3090307 37.5843316,49.3090307 C35.0575028,49.3090307 33.0091033,51.3456916 33.0091033,53.8580403 C33.0091033,54.6899404 33.2336968,55.4696845 33.6258851,56.1406004 C32.2829824,56.879909 30.8367024,57.4562209 29.3140553,57.8426809 C29.0345253,55.5966441 27.1083154,53.8580403 24.7736924,53.8580403 C22.4390694,53.8580403 20.5128595,55.5966441 20.2333295,57.8426809 C18.5355522,57.4117715 16.9327192,56.7448262 15.4622739,55.8790735 C16.1336709,55.087445 16.5382815,54.0648218 16.5382815,52.9482384 C16.5382815,50.4358897 14.489882,48.3992287 11.9630532,48.3992287 C10.8400342,48.3992287 9.81151704,48.8015206 9.01532589,49.4690702 C8.14458337,48.0070513 7.47379403,46.4134035 7.04040108,44.7253554 C9.29938313,44.4474273 11.0480075,42.5322557 11.0480075,40.2110114 C11.0480075,37.8897671 9.29938313,35.9745955 7.04040108,35.6966673 C7.49792126,33.9146447 8.22000553,32.2378255 9.16260265,30.7100087 C9.73751286,30.9688695 10.3758324,31.1129921 11.0480075,31.1129921 C13.5748363,31.1129921 15.6232358,29.0763311 15.6232358,26.5639825 C15.6232358,25.8956593 15.4782826,25.2609977 15.2179298,24.689382 C17.0077463,23.597762 19.0008788,22.8035965 21.1277156,22.3760983 C21.3128328,24.7196218 23.2841573,26.5639825 25.688738,26.5639825 C27.9373199,26.5639825 29.8070375,24.9511676 30.1915474,22.8255417 C31.8036885,23.321636 33.3205493,24.0333061 34.7080547,24.9266724 C34.2131896,25.653428 33.924149,26.5300451 33.924149,27.4737844 C33.924149,29.986133 35.9725484,32.022794 38.4993772,32.022794 C39.3360721,32.022794 40.1203103,31.7994876 40.7950931,31.4095468 C41.5386628,32.7447538 42.1182964,34.1827458 42.5069837,35.6966673 C40.2480016,35.9745955 38.4993772,37.8897671 38.4993772,40.2110114 C38.4993772,42.5322557 40.2480016,44.4474273 42.5069837,44.7253554 Z M24.7736924,49.3090307 C29.82735,49.3090307 33.924149,45.2357087 33.924149,40.2110114 C33.924149,35.1863141 29.82735,31.1129921 24.7736924,31.1129921 C19.7200348,31.1129921 15.6232358,35.1863141 15.6232358,40.2110114 C15.6232358,45.2357087 19.7200348,49.3090307 24.7736924,49.3090307 Z" id="Combined-Shape" transform="translate(24.773692, 40.109390) rotate(33.000000) translate(-24.773692, -40.109390) "></path>
                        <path d="M56.2411334,17.7182857 C55.931506,18.924272 55.4280092,20.0531664 54.7655961,21.0702162 C54.3087559,20.7626979 53.7577124,20.5830827 53.1644758,20.5830827 C51.5852078,20.5830827 50.3049581,21.8559959 50.3049581,23.4262138 C50.3049581,23.9461513 50.4453291,24.4334914 50.6904467,24.8528138 C49.8511326,25.3148817 48.9472076,25.6750767 47.9955531,25.9166141 C47.8208468,24.5128411 46.6169657,23.4262138 45.1578263,23.4262138 C43.6986869,23.4262138 42.4948057,24.5128411 42.3200995,25.9166141 C41.2589887,25.6472958 40.2572181,25.2304549 39.3381897,24.6893595 C39.7578129,24.1945917 40.0106945,23.5554522 40.0106945,22.8575876 C40.0106945,21.2873696 38.7304448,20.0144565 37.1511768,20.0144565 C36.4492899,20.0144565 35.8064667,20.265889 35.3088472,20.6831074 C34.7646332,19.7693456 34.3453898,18.7733158 34.0745192,17.7182857 C35.486383,17.5445806 36.5792733,16.3475984 36.5792733,14.8968207 C36.5792733,13.446043 35.486383,12.2490608 34.0745192,12.0753557 C34.3604693,10.9615915 34.811772,9.91357953 35.4008952,8.958694 C35.7602141,9.12048203 36.1591638,9.21055864 36.5792733,9.21055864 C38.1585413,9.21055864 39.4387909,7.93764553 39.4387909,6.36742762 C39.4387909,5.94972561 39.3481952,5.55306213 39.1854746,5.19580235 C40.30411,4.51353982 41.5498178,4.01718637 42.8790908,3.75 C42.994789,5.21470221 44.2268668,6.36742762 45.7297298,6.36742762 C47.1350935,6.36742762 48.303667,5.35941836 48.5439857,4.03090211 C49.5515739,4.34096107 50.4996118,4.78575491 51.3668028,5.3441088 C51.0575121,5.79833106 50.8768617,6.34621675 50.8768617,6.93605382 C50.8768617,8.50627173 52.1571113,9.77918485 53.7363793,9.77918485 C54.2593136,9.77918485 54.7494625,9.63961831 55.1712018,9.39590531 C55.6359328,10.2304097 55.9982038,11.1291547 56.2411334,12.0753557 C54.8292696,12.2490608 53.7363793,13.446043 53.7363793,14.8968207 C53.7363793,16.3475984 54.8292696,17.5445806 56.2411334,17.7182857 Z M45.1578263,20.5830827 C48.3163623,20.5830827 50.8768617,18.0372565 50.8768617,14.8968207 C50.8768617,11.7563849 48.3163623,9.21055864 45.1578263,9.21055864 C41.9992903,9.21055864 39.4387909,11.7563849 39.4387909,14.8968207 C39.4387909,18.0372565 41.9992903,20.5830827 45.1578263,20.5830827 Z" id="Combined-Shape-Copy" transform="translate(45.157826, 14.833307) rotate(24.000000) translate(-45.157826, -14.833307) "></path>
                    </g>
                </g>
            </g>
        </g>
    </g>
</svg>