<?xml version="1.0" encoding="UTF-8"?>
<svg width="59px" height="109px" viewBox="0 0 59 109" version="1.1" xmlns="http://www.w3.org/2000/svg" xmlns:xlink="http://www.w3.org/1999/xlink">
    <!-- Generator: Sketch 47.1 (45422) - http://www.bohemiancoding.com/sketch -->
    <title>Group 4</title>
    <desc>Created with Sketch.</desc>
    <defs>
        <rect id="path-1" x="0" y="0" width="44.1919192" height="3.125" rx="1.5625"></rect>
        <rect id="path-2" x="0" y="5.5239899" width="41.4299242" height="3.125" rx="1.5625"></rect>
        <rect id="path-3" x="0" y="11.0479798" width="35.3535354" height="3.125" rx="1.5625"></rect>
        <rect id="path-4" x="0" y="0" width="44.1919192" height="2.76199495" rx="1.38099747"></rect>
        <rect id="path-5" x="0" y="5.5239899" width="41.4299242" height="2.76199495" rx="1.38099747"></rect>
        <rect id="path-6" x="0" y="11.0479798" width="35.3535354" height="2.76199495" rx="1.38099747"></rect>
        <rect id="path-7" x="0" y="0" width="44.1919192" height="2.76199495" rx="1.38099747"></rect>
        <rect id="path-8" x="0" y="5.5239899" width="41.4299242" height="2.76199495" rx="1.38099747"></rect>
        <rect id="path-9" x="0" y="11.0479798" width="35.3535354" height="2.76199495" rx="1.38099747"></rect>
        <rect id="path-10" x="0" y="0" width="33.1439394" height="3.31439394" rx="1.65719697"></rect>
        <rect id="path-11" x="5.5239899" y="8.83838384" width="22.0959596" height="2.20959596" rx="1.10479798"></rect>
        <rect id="path-12" x="11.0479798" y="6.07638889" width="11.0479798" height="1.10479798" rx="0.55239899"></rect>
        <path d="M2.55239899,0.284090909 L52.135101,0.284090909 L52.135101,0.284090909 C53.2396705,0.284090909 54.135101,1.17952141 54.135101,2.28409091 L54.135101,4.97159091 L0.55239899,4.97159091 L0.55239899,2.28409091 L0.55239899,2.28409091 C0.55239899,1.17952141 1.44782949,0.284090909 2.55239899,0.284090909 Z" id="path-13"></path>
    </defs>
    <g id="Page-1" stroke="none" stroke-width="1" fill="none" fill-rule="evenodd">
        <g id="Desktop-HD" transform="translate(-420.000000, -1238.000000)">
            <g id="Projects" transform="translate(241.000000, 1067.000000)">
                <g id="ProjectInstances" transform="translate(0.000000, 127.000000)">
                    <g id="feedr">
                        <g id="Group-4" transform="translate(181.250000, 46.250000)">
                            <rect id="Rectangle-8" stroke="#FFFFFF" stroke-width="3" x="0" y="0" width="54.6875" height="104.955808" rx="6"></rect>
                            <g id="Group-2" transform="translate(5.523990, 27.067551)">
                                <g id="Rectangle-12">
                                    <use fill="#FFFFFF" fill-rule="evenodd" xlink:href="#path-1"></use>
                                    <rect stroke="#FFFFFF" stroke-width="1" x="0.5" y="0.5" width="43.1919192" height="2.125" rx="1.0625"></rect>
                                </g>
                                <g id="Rectangle-12">
                                    <use fill="#FFFFFF" fill-rule="evenodd" xlink:href="#path-2"></use>
                                    <rect stroke="#FFFFFF" stroke-width="1" x="0.5" y="6.0239899" width="40.4299242" height="2.125" rx="1.0625"></rect>
                                </g>
                                <g id="Rectangle-12">
                                    <use fill="#FFFFFF" fill-rule="evenodd" xlink:href="#path-3"></use>
                                    <rect stroke="#FFFFFF" stroke-width="1" x="0.5" y="11.5479798" width="34.3535354" height="2.125" rx="1.0625"></rect>
                                </g>
                            </g>
                            <g id="Group-2" transform="translate(5.523990, 46.953914)">
                                <g id="Rectangle-12">
                                    <use fill="#FFFFFF" fill-rule="evenodd" xlink:href="#path-4"></use>
                                    <rect stroke="#FFFFFF" stroke-width="1" x="0.5" y="0.5" width="43.1919192" height="1.76199495" rx="0.880997475"></rect>
                                </g>
                                <g id="Rectangle-12">
                                    <use fill="#FFFFFF" fill-rule="evenodd" xlink:href="#path-5"></use>
                                    <rect stroke="#FFFFFF" stroke-width="1" x="0.5" y="6.0239899" width="40.4299242" height="1.76199495" rx="0.880997475"></rect>
                                </g>
                                <g id="Rectangle-12">
                                    <use fill="#FFFFFF" fill-rule="evenodd" xlink:href="#path-6"></use>
                                    <rect stroke="#FFFFFF" stroke-width="1" x="0.5" y="11.5479798" width="34.3535354" height="1.76199495" rx="0.880997475"></rect>
                                </g>
                            </g>
                            <g id="Group-2" transform="translate(5.523990, 66.840278)">
                                <g id="Rectangle-12">
                                    <use fill="#FFFFFF" fill-rule="evenodd" xlink:href="#path-7"></use>
                                    <rect stroke="#FFFFFF" stroke-width="1" x="0.5" y="0.5" width="43.1919192" height="1.76199495" rx="0.880997475"></rect>
                                </g>
                                <g id="Rectangle-12">
                                    <use fill="#FFFFFF" fill-rule="evenodd" xlink:href="#path-8"></use>
                                    <rect stroke="#FFFFFF" stroke-width="1" x="0.5" y="6.0239899" width="40.4299242" height="1.76199495" rx="0.880997475"></rect>
                                </g>
                                <g id="Rectangle-12">
                                    <use fill="#FFFFFF" fill-rule="evenodd" xlink:href="#path-9"></use>
                                    <rect stroke="#FFFFFF" stroke-width="1" x="0.5" y="11.5479798" width="34.3535354" height="1.76199495" rx="0.880997475"></rect>
                                </g>
                            </g>
                            <path d="M0,95.75 L55.5800018,95.75 C55.5800018,101.241468 51.1282877,105.693182 45.63682,105.693182 L9.94318182,105.693182 C4.45171414,105.693182 6.72510832e-16,101.241468 0,95.75 L0,95.75 Z M28.0764958,104.035985 C29.9752166,104.035985 31.514434,102.55208 31.514434,100.721591 C31.514434,98.8911017 29.9752166,97.407197 28.0764958,97.407197 C26.1777749,97.407197 24.6385575,98.8911017 24.6385575,100.721591 C24.6385575,102.55208 26.1777749,104.035985 28.0764958,104.035985 Z" id="Combined-Shape" fill="#FFFFFF"></path>
                            <g id="Group-3" transform="translate(11.047980, 9.943182)">
                                <g id="Rectangle-10">
                                    <use fill="#FFFFFF" fill-rule="evenodd" xlink:href="#path-10"></use>
                                    <rect stroke="#FFFFFF" stroke-width="1" x="0.5" y="0.5" width="32.1439394" height="2.31439394" rx="1.15719697"></rect>
                                </g>
                                <g id="Rectangle-11">
                                    <use fill="#FFFFFF" fill-rule="evenodd" xlink:href="#path-11"></use>
                                    <rect stroke="#FFFFFF" stroke-width="1" x="6.0239899" y="9.33838384" width="21.0959596" height="1.20959596" rx="0.60479798"></rect>
                                </g>
                                <g id="Rectangle-11">
                                    <use fill="#FFFFFF" fill-rule="evenodd" xlink:href="#path-12"></use>
                                    <rect stroke="#FFFFFF" stroke-width="1" x="11.5479798" y="6.57638889" width="10.0479798" height="1" rx="0.5"></rect>
                                </g>
                            </g>
                            <g id="Combined-Shape">
                                <use fill="#FFFFFF" fill-rule="evenodd" xlink:href="#path-13"></use>
                                <path stroke="#FFFFFF" stroke-width="1" d="M1.05239899,4.47159091 L53.635101,4.47159091 L53.635101,2.28409091 C53.635101,1.45566378 52.9635281,0.784090909 52.135101,0.784090909 L2.55239899,0.784090909 C1.72397187,0.784090909 1.05239899,1.45566378 1.05239899,2.28409091 L1.05239899,4.47159091 Z"></path>
                            </g>
                        </g>
                    </g>
                </g>
            </g>
        </g>
    </g>
</svg>