<?xml version="1.0" encoding="UTF-8"?>
<svg width="202px" height="132px" viewBox="0 0 202 132" version="1.1" xmlns="http://www.w3.org/2000/svg" xmlns:xlink="http://www.w3.org/1999/xlink">
    <!-- Generator: Sketch 47.1 (45422) - http://www.bohemiancoding.com/sketch -->
    <title>Group 13</title>
    <desc>Created with Sketch.</desc>
    <defs>
        <rect id="path-1" x="11.9863014" y="30.8219178" width="29.5138889" height="1.73611111" rx="0.868055556"></rect>
        <rect id="path-2" x="2.89252649" y="31.4262691" width="28.9252649" height="1.4101531" rx="0.705076551"></rect>
        <rect id="path-3" x="12.0615997" y="32.597513" width="30.1539992" height="1.48170514" rx="0.740852568"></rect>
    </defs>
    <g id="Page-2" stroke="none" stroke-width="1" fill="none" fill-rule="evenodd">
        <g id="Home-Copy-12" transform="translate(-1021.000000, -3609.000000)">
            <g id="Group-3" transform="translate(117.000000, 2996.000000)">
                <g id="Skills" transform="translate(108.000000, 286.000000)">
                    <g id="Frontend" transform="translate(54.000000, 318.000000)">
                        <g id="Group-13" transform="translate(743.000000, 10.000000)">
                            <rect id="Rectangle-7" stroke="#000000" stroke-width="2" fill="#43007F" x="0" y="0" width="200" height="98.6111111" rx="3"></rect>
                            <g id="Group" transform="translate(60.273973, 98.630137)" stroke="#000000" stroke-width="2" fill="#000000" stroke-linecap="square">
                                <path d="M34.433357,0 L34.433357,19.3948413 L-1.03269131,28.8372333 L-1.03269131,28.8372333 C-1.56638511,28.9793226 -1.88384328,29.5271531 -1.74175398,30.0608469 C-1.62515683,30.498791 -1.22861556,30.8035714 -0.775415867,30.8035714 L34.433357,30.8035714 L34.433357,0 Z" id="Line"></path>
                                <path d="M77.9390071,0 L69.1489143,0 L69.1489143,19.3948413 L33.682866,28.8372333 L33.682866,28.8372333 C33.1491722,28.9793226 32.831714,29.5271531 32.9738033,30.0608469 C33.0904005,30.498791 33.4869417,30.8035714 33.9401414,30.8035714 L77.9390071,30.8035714 L77.9390071,0 Z" id="Line-Copy" transform="translate(56.731083, 15.401786) scale(-1, 1) translate(-56.731083, -15.401786) "></path>
                            </g>
                            <g id="Group-4" transform="translate(155.555556, 11.111111)" fill="#FFFFFF">
                                <rect id="Rectangle" x="0" y="0" width="8.68055556" height="1.38888889" rx="0.694444444"></rect>
                                <rect id="Rectangle-Copy" x="13.0208333" y="0" width="8.68055556" height="1.38888889" rx="0.694444444"></rect>
                                <rect id="Rectangle-Copy-2" x="26.0416667" y="0" width="8.68055556" height="1.38888889" rx="0.694444444"></rect>
                            </g>
                            <g id="Group-8" transform="translate(17.808219, 38.356164)">
                                <g id="Group-2" transform="translate(110.958904, 0.000000)">
                                    <g id="Group-7" transform="translate(0.491644, 0.388072)">
                                        <polygon id="Triangle-2" fill="#FFFFFF" transform="translate(47.832795, 3.174458) rotate(64.000000) translate(-47.832795, -3.174458) " points="47.8327948 1.81620681 49.2258275 4.53271008 46.4397621 4.53271008"></polygon>
                                        <g id="Group-6" transform="translate(2.786065, 2.716503)" stroke="#FFFFFF" stroke-width="0.5" stroke-linecap="square">
                                            <path d="M0.55721309,14.940768 L18.1094254,6.79125817" id="Line-5"></path>
                                            <path d="M20.8954909,12.2242647 L18.1094254,6.79125817" id="Line-5-Copy"></path>
                                            <path d="M20.8954909,12.2242647 L43.1840145,1.35825163" id="Line-5-Copy-2"></path>
                                        </g>
                                        <path d="M2.78606545,0 L2.78606545,27.1650327" id="Line-4" stroke="#FFFFFF" stroke-width="0.5"></path>
                                        <path d="M50.1491781,24.4485294 L0,24.4485294" id="Line-4-Copy" stroke="#FFFFFF" stroke-width="0.5"></path>
                                    </g>
                                    <g id="Rectangle-12">
                                        <use fill="#FFFFFF" fill-rule="evenodd" xlink:href="#path-1"></use>
                                        <rect stroke="#FFFFFF" stroke-width="0.5" x="12.2363014" y="31.0719178" width="29.0138889" height="1.23611111" rx="0.618055556"></rect>
                                    </g>
                                </g>
                                <g id="Group-10" transform="translate(67.123288, 0.000000)">
                                    <g id="Rectangle-12">
                                        <use fill="#FFFFFF" fill-rule="evenodd" xlink:href="#path-2"></use>
                                        <rect stroke="#FFFFFF" stroke-width="0.5" x="3.14252649" y="31.6762691" width="28.4252649" height="1" rx="0.5"></rect>
                                    </g>
                                    <path d="M11.0857999,6.31464251 C7.3491334,8.1850302 4.79249481,11.9798832 4.79249481,16.356962 C4.79249481,22.5874105 9.9726077,27.6381868 16.3626008,27.6381868 C22.7525939,27.6381868 27.9327068,22.5874105 27.9327068,16.356962 C27.9327068,10.1265136 22.7525939,5.07573721 16.3626008,5.07573721 C16.2174518,5.07573721 16.0729271,5.07834327 15.9290732,5.08351003 L16.3626008,19.1772682 L11.0857999,6.31464251 Z" id="Combined-Shape" fill="#FFFFFF" transform="translate(16.362601, 16.356962) rotate(45.000000) translate(-16.362601, -16.356962) "></path>
                                </g>
                                <g id="Group-9">
                                    <g id="Group-5">
                                        <path d="M3.01539992,0 L3.01539992,29.6341027" id="Line-4" stroke="#FFFFFF" stroke-width="0.5"></path>
                                        <path d="M54.2771986,26.6706924 L0,26.6706924" id="Line-4-Copy" stroke="#FFFFFF" stroke-width="0.5"></path>
                                        <rect id="Rectangle-11" fill="#FFFFFF" x="6.03079985" y="11.8536411" width="6.03079985" height="14.8170514"></rect>
                                        <rect id="Rectangle-11-Copy" fill="#FFFFFF" x="15.0769996" y="8.89023081" width="6.03079985" height="17.7804616"></rect>
                                        <rect id="Rectangle-11-Copy-2" fill="#FFFFFF" x="24.1231994" y="20.7438719" width="6.03079985" height="5.92682054"></rect>
                                        <rect id="Rectangle-11-Copy-3" fill="#FFFFFF" x="33.1693992" y="14.8170514" width="6.03079985" height="11.8536411"></rect>
                                        <rect id="Rectangle-11-Copy-4" fill="#FFFFFF" x="42.2155989" y="14.8170514" width="6.03079985" height="11.8536411"></rect>
                                    </g>
                                    <g id="Rectangle-12">
                                        <use fill="#FFFFFF" fill-rule="evenodd" xlink:href="#path-3"></use>
                                        <rect stroke="#FFFFFF" stroke-width="0.5" x="12.3115997" y="32.847513" width="29.6539992" height="1" rx="0.5"></rect>
                                    </g>
                                </g>
                            </g>
                            <rect id="Rectangle-10" fill="#FFFFFF" x="60.2739726" y="19.1780822" width="80.5555556" height="2.77777778" rx="1.38888889"></rect>
                            <rect id="Rectangle-10-Copy" fill="#FFFFFF" x="75" y="26.465753" width="48.6111111" height="1.38888889" rx="0.694444444"></rect>
                            <circle id="Oval" fill="#FFFFFF" cx="16.6111111" cy="13.8333333" r="5.5"></circle>
                        </g>
                    </g>
                </g>
            </g>
        </g>
    </g>
</svg>