<?xml version="1.0" encoding="UTF-8"?>
<svg width="129px" height="141px" viewBox="0 0 129 141" version="1.1" xmlns="http://www.w3.org/2000/svg" xmlns:xlink="http://www.w3.org/1999/xlink">
    <!-- Generator: Sketch 47.1 (45422) - http://www.bohemiancoding.com/sketch -->
    <title>OPSICON</title>
    <desc>Created with Sketch.</desc>
    <defs></defs>
    <g id="Page-2" stroke="none" stroke-width="1" fill="none" fill-rule="evenodd">
        <g id="Home-Copy-12" transform="translate(-1031.000000, -4241.000000)" stroke="#000000" stroke-width="3" fill="#A5A5A5">
            <g id="Group-3" transform="translate(117.000000, 2996.000000)">
                <g id="Skills" transform="translate(108.000000, 286.000000)">
                    <g id="Operations" transform="translate(54.000000, 952.000000)">
                        <g id="OPSICON" transform="translate(738.000000, 0.000000)">
                            <path d="M106.267459,111.813389 C105.02895,116.637334 103.014963,121.152911 100.36531,125.221111 C98.5379495,123.991037 96.3337756,123.272577 93.960829,123.272577 C87.6437569,123.272577 82.5227582,128.364229 82.5227582,134.645101 C82.5227582,136.724851 83.084242,138.674211 84.0647127,140.351501 C80.707456,142.199772 77.091756,143.640552 73.2851382,144.606702 C72.5863131,138.99161 67.7707884,134.645101 61.934231,134.645101 C56.0976735,134.645101 51.2821488,138.99161 50.5833237,144.606702 C46.3388804,143.529429 42.3317981,141.862065 38.6556847,139.697684 C40.3341772,137.718612 41.3457037,135.162055 41.3457037,132.370596 C41.3457037,126.089724 36.224705,120.998072 29.9076329,120.998072 C27.1000854,120.998072 24.5287926,122.003802 22.5383147,123.672675 C20.3614584,120.017628 18.6844851,116.033509 17.6010027,111.813389 C23.2484578,111.118568 27.6200188,106.330639 27.6200188,100.527528 C27.6200188,94.7244177 23.2484578,89.9364887 17.6010027,89.2416683 C18.7448031,84.7866117 20.5500138,80.5945638 22.9065066,76.7750217 C24.3437821,77.4221738 25.9395809,77.7824803 27.6200188,77.7824803 C33.9370908,77.7824803 39.0580895,72.6908278 39.0580895,66.4099562 C39.0580895,64.7391481 38.6957064,63.1524942 38.0448244,61.7234551 C42.5193657,58.994405 47.502197,57.0089912 52.819289,55.9402457 C53.282082,61.7990545 58.2103931,66.4099562 64.2218451,66.4099562 C69.8432997,66.4099562 74.5175939,62.3779191 75.4788685,57.0638541 C79.5092213,58.30409 83.3013732,60.0832653 86.7701368,62.3166809 C85.532974,64.1335699 84.8103724,66.3251127 84.8103724,68.684461 C84.8103724,74.9653326 89.9313711,80.0569851 96.2484431,80.0569851 C98.3401802,80.0569851 100.300776,79.4987189 101.987733,78.5238669 C103.846657,81.8618846 105.295741,85.4568646 106.267459,89.2416683 C100.620004,89.9364887 96.2484431,94.7244177 96.2484431,100.527528 C96.2484431,106.330639 100.620004,111.118568 106.267459,111.813389 Z M61.934231,123.272577 C74.568375,123.272577 84.8103724,113.089272 84.8103724,100.527528 C84.8103724,87.9657852 74.568375,77.7824803 61.934231,77.7824803 C49.3000869,77.7824803 39.0580895,87.9657852 39.0580895,100.527528 C39.0580895,113.089272 49.3000869,123.272577 61.934231,123.272577 Z" id="Combined-Shape" transform="translate(61.934231, 100.273474) rotate(33.000000) translate(-61.934231, -100.273474) "></path>
                            <path d="M140.602833,44.2957143 C139.828765,47.31068 138.570023,50.132916 136.91399,52.6755405 C135.77189,51.9067448 134.394281,51.4577068 132.911189,51.4577068 C128.963019,51.4577068 125.762395,54.6399896 125.762395,58.5655344 C125.762395,59.8653783 126.113323,61.0837284 126.726117,62.1320346 C124.627831,63.2872042 122.368019,64.1876917 119.988883,64.7915353 C119.552117,61.2821028 116.542414,58.5655344 112.894566,58.5655344 C109.246717,58.5655344 106.237014,61.2821028 105.800249,64.7915353 C103.147472,64.1182394 100.643045,63.0761373 98.3454743,61.7233988 C99.3945322,60.4864792 100.026736,58.8886306 100.026736,57.1439689 C100.026736,53.2184241 96.826112,50.0361413 92.877942,50.0361413 C91.1232248,50.0361413 89.5161668,50.6647225 88.2721181,51.7077686 C86.9115829,49.4233641 85.8634746,46.9332894 85.1862981,44.2957143 C88.7159575,43.8614515 91.4481831,40.8689959 91.4481831,37.2420517 C91.4481831,33.6151075 88.7159575,30.6226519 85.1862981,30.1883891 C85.9011733,27.4039788 87.02943,24.7839488 88.502238,22.396735 C89.4005352,22.8012051 90.3979095,23.0263966 91.4481831,23.0263966 C95.3963532,23.0263966 98.5969773,19.8441138 98.5969773,15.9185691 C98.5969773,14.874314 98.3704879,13.8826553 97.9636866,12.9895059 C100.760275,11.2838495 103.874544,10.0429659 107.197727,9.375 C107.486973,13.0367555 110.567167,15.9185691 114.324325,15.9185691 C117.837734,15.9185691 120.759168,13.3985459 121.359964,10.0772553 C123.878935,10.8524027 126.24903,11.9643873 128.417007,13.360272 C127.64378,14.4958276 127.192154,15.8655419 127.192154,17.3401346 C127.192154,21.2656793 130.392778,24.4479621 134.340948,24.4479621 C135.648284,24.4479621 136.873656,24.0990458 137.928004,23.4897633 C139.089832,25.5760243 139.995509,27.8228868 140.602833,30.1883891 C137.073174,30.6226519 134.340948,33.6151075 134.340948,37.2420517 C134.340948,40.8689959 137.073174,43.8614515 140.602833,44.2957143 Z M112.894566,51.4577068 C120.790906,51.4577068 127.192154,45.0931413 127.192154,37.2420517 C127.192154,29.3909622 120.790906,23.0263966 112.894566,23.0263966 C104.998226,23.0263966 98.5969773,29.3909622 98.5969773,37.2420517 C98.5969773,45.0931413 104.998226,51.4577068 112.894566,51.4577068 Z" id="Combined-Shape-Copy" transform="translate(112.894566, 37.083268) rotate(24.000000) translate(-112.894566, -37.083268) "></path>
                        </g>
                    </g>
                </g>
            </g>
        </g>
    </g>
</svg>