<?xml version="1.0" encoding="UTF-8"?>
<svg width="982px" height="982px" viewBox="0 0 982 982" version="1.1" xmlns="http://www.w3.org/2000/svg" xmlns:xlink="http://www.w3.org/1999/xlink">
    <!-- Generator: Sketch 46.2 (44496) - http://www.bohemiancoding.com/sketch -->
    <title>IVX</title>
    <desc>Created with Sketch.</desc>
    <defs></defs>
    <g id="Page-1" stroke="none" stroke-width="1" fill="none" fill-rule="evenodd">
        <g id="IVX" fill-rule="nonzero" fill="#FFFFFF">
            <path d="M418.857,776.615 L442.22,753.252 L580.733,891.765 L674.545,797.953 L480.825,714.647 L505.97,689.502 L661.391,759.392 L591.897,603.575 L616.25,579.222 L698.764,773.734 L790.454,682.045 L769.886,560.615 L655.448,540.024 L682.573,512.9 L764.54,527.155 L750.483,444.99 L777.806,417.667 L797.803,530.719 L920.223,552.276 L981.499,491 L491,0.501 L0.501,491 L491,981.499 L557.37,915.129 L418.857,776.615 Z M728.621,667.046 C735.748,659.919 746.44,659.919 753.964,667.442 C761.686,675.164 761.883,686.053 754.756,693.18 C747.628,700.308 736.739,700.11 729.017,692.388 C721.494,684.865 721.494,674.174 728.621,667.046 Z M669.818,608.244 C676.945,601.117 687.637,601.117 695.161,608.64 C702.882,616.362 703.08,627.251 695.953,634.378 C688.825,641.506 677.936,641.308 670.214,633.586 C662.691,626.062 662.691,615.371 669.818,608.244 Z" id="Shape"></path>
            <polygon id="Shape" points="802.752 565.367 817.776 654.722 892.305 580.194"></polygon>
        </g>
    </g>
</svg>