<?xml version="1.0" encoding="utf-8"?>
<!-- Generator: Adobe Illustrator 15.1.0, SVG Export Plug-In . SVG Version: 6.00 Build 0)  -->
<!DOCTYPE svg PUBLIC "-//W3C//DTD SVG 1.1//EN" "http://www.w3.org/Graphics/SVG/1.1/DTD/svg11.dtd">
<svg version="1.1" id="Layer_1" xmlns="http://www.w3.org/2000/svg" xmlns:xlink="http://www.w3.org/1999/xlink" x="0px" y="0px"
	 width="1000px" height="1000px" viewBox="0 0 1000 1000" enable-background="new 0 0 1000 1000" xml:space="preserve">
<g>
	<path d="M427.857,785.615l23.363-23.363l138.513,138.513l93.812-93.812l-193.72-83.306l25.145-25.145l155.421,69.89
		l-69.494-155.817l24.353-24.353l82.514,194.512l91.69-91.689l-20.568-121.43l-114.438-20.591l27.125-27.124l81.967,14.255
		l-14.057-82.165l27.323-27.323l19.997,113.052l122.42,21.557L990.499,500L500,9.501L9.501,500L500,990.499l66.37-66.37
		L427.857,785.615z M737.621,676.046c7.127-7.127,17.819-7.127,25.343,0.396c7.722,7.722,7.919,18.611,0.792,25.738
		c-7.128,7.128-18.017,6.93-25.739-0.792C730.494,693.865,730.494,683.174,737.621,676.046z M678.818,617.244
		c7.127-7.127,17.819-7.127,25.343,0.396c7.721,7.722,7.919,18.611,0.792,25.738c-7.128,7.128-18.017,6.93-25.739-0.792
		C671.691,635.062,671.691,624.371,678.818,617.244z"/>
	<polygon points="811.752,574.367 826.776,663.722 901.305,589.194 	"/>
</g>
</svg>
