<?xml version="1.0" encoding="UTF-8"?>
<svg width="73px" height="77px" viewBox="0 0 73 77" version="1.1" xmlns="http://www.w3.org/2000/svg" xmlns:xlink="http://www.w3.org/1999/xlink">
    <!-- Generator: Sketch 45.2 (43514) - http://www.bohemiancoding.com/sketch -->
    <title>LOGO</title>
    <desc>Created with Sketch.</desc>
    <defs></defs>
    <g id="Page-1" stroke="none" stroke-width="1" fill="none" fill-rule="evenodd">
        <g id="LOGO" transform="translate(1.000000, 1.000000)">
            <path d="M58.7948413,23.2250436 C57.7300893,22.9860041 56.622646,22.859869 55.4857423,22.859869 C47.1786293,22.859869 40.4443836,29.5941147 40.4443836,37.9012277 C40.4443836,46.2083408 47.1786293,52.9425864 55.4857423,52.9425864 C56.622646,52.9425864 57.7300893,52.8164513 58.7948413,52.5774119 L58.7948413,50.398362 C57.8461652,50.6217911 56.8568874,50.7400017 55.8400002,50.7400017 C48.7486639,50.7400017 43,44.9913378 43,37.9000015 C43,30.8086653 48.7486639,25.0600014 55.8400002,25.0600014 C56.8568874,25.0600014 57.8461652,25.178212 58.7948413,25.4016411 L58.7948413,23.2250436 Z" id="Combined-Shape-Copy-4" fill="#000000"></path>
            <path d="M0,22.5667938 L0,51.5812429 C0,51.7431039 0.131214256,51.8743181 0.293075244,51.8743181 C0.454936231,51.8743181 0.586150487,51.7431039 0.586150487,51.5812429 L0.586150487,22.5667938 C0.586150487,22.4049328 0.454936231,22.2737185 0.293075244,22.2737185 M0.369510341,22.764179 L12.3855953,35.9525649 C12.4946071,36.072212 12.6799717,36.0808336 12.7996187,35.9718218 C12.9192658,35.8628101 12.9278874,35.6774455 12.8188756,35.5577984 L0.802790634,22.3694125 C0.693778878,22.2497654 0.508414292,22.2411438 0.388767242,22.3501556 M24.8349626,22.764179 L12.8188776,35.9525649 C12.7098658,36.072212 12.5245013,36.0808336 12.4048542,35.9718218 C12.2852072,35.8628101 12.2765855,35.6774455 12.3855973,35.5577984 L24.4016823,22.3694125 C24.510694,22.2497654 24.6960586,22.2411438 24.8157057,22.3501556 M24.6183205,22.5667957 L24.6183205,51.5812448 C24.6183205,51.7431058 24.7495347,51.8743201 24.9113957,51.8743201 C25.0732567,51.8743201 25.2044709,51.7431058 25.2044709,51.5812448 L25.2044709,22.5667957 C25.2044709,22.4049347 25.0732567,22.2737205 24.9113957,22.2737205" id="Combined-Shape-Copy-3" stroke="#000000" stroke-width="1.5" fill="#000000" stroke-linecap="round"></path>
            <path d="M33.9967283,0.00112976642 C47.8582584,0.10803085 59.9158438,7.79210615 66.2319482,19.1158193 C69.2210113,24.4747068 70.9242089,30.6487298 70.9242089,37.2205559 C70.9242089,57.6791211 54.4181545,74.2824907 33.9967283,74.4399821 L33.9967283,0.00111429162 Z" id="Combined-Shape" stroke="#000000" stroke-width="2"></path>
        </g>
    </g>
</svg>