<?xml version="1.0" encoding="UTF-8"?>
<svg width="72px" height="76px" viewBox="0 0 72 76" version="1.1" xmlns="http://www.w3.org/2000/svg" xmlns:xlink="http://www.w3.org/1999/xlink">
    <!-- Generator: Sketch 47.1 (45422) - http://www.bohemiancoding.com/sketch -->
    <title>LOGO Copy</title>
    <desc>Created with Sketch.</desc>
    <defs></defs>
    <g id="Page-1" stroke="none" stroke-width="1" fill="none" fill-rule="evenodd">
        <g id="LOGO-Copy" transform="translate(1.000000, 1.000000)">
            <path d="M57.9667449,22.8979303 C56.9169894,22.6622576 55.825144,22.537899 54.704253,22.537899 C46.5141416,22.537899 39.8747444,29.1772962 39.8747444,37.3674076 C39.8747444,45.5575191 46.5141416,52.1969162 54.704253,52.1969162 C55.825144,52.1969162 56.9169894,52.0725576 57.9667449,51.8368849 L57.9667449,49.6885259 C57.0314304,49.9088081 56.0560862,50.0253538 55.0535213,50.0253538 C48.062063,50.0253538 42.3943662,44.357657 42.3943662,37.3661987 C42.3943662,30.3747404 48.062063,24.7070436 55.0535213,24.7070436 C56.0560862,24.7070436 57.0314304,24.8235893 57.9667449,25.0438715 L57.9667449,22.8979303 Z" id="Combined-Shape-Copy-4" fill="#FFFFFF"></path>
            <path d="M0,22.2489516 L0,50.8547465 C0,51.0143277 0.129366168,51.1436939 0.288947423,51.1436939 C0.448528679,51.1436939 0.577894846,51.0143277 0.577894846,50.8547465 L0.577894846,22.2489516 C0.577894846,22.0893703 0.448528679,21.9600042 0.288947423,21.9600042 M0.36430597,22.4435567 L12.2111503,35.4461908 C12.3186267,35.5641527 12.5013805,35.5726528 12.6193424,35.4651765 C12.7373043,35.3577001 12.7458045,35.1749463 12.6383281,35.0569844 L0.791483723,22.0543503 C0.684007344,21.9363885 0.501253527,21.9278883 0.383291647,22.0353647 M24.4851744,22.4435567 L12.63833,35.4461908 C12.5308536,35.5641527 12.3480998,35.5726528 12.2301379,35.4651765 C12.1121761,35.3577001 12.1036759,35.1749463 12.2111523,35.0569844 L24.0579966,22.0543503 C24.165473,21.9363885 24.3482268,21.9278883 24.4661887,22.0353647 M24.2715836,22.2489535 L24.2715836,50.8547484 C24.2715836,51.0143297 24.4009497,51.1436959 24.560531,51.1436959 C24.7201122,51.1436959 24.8494784,51.0143297 24.8494784,50.8547484 L24.8494784,22.2489535 C24.8494784,22.0893723 24.7201122,21.9600061 24.560531,21.9600061" id="Combined-Shape-Copy-3" stroke="#FFFFFF" stroke-width="1.5" fill="#FFFFFF" stroke-linecap="round"></path>
            <path d="M33.5179011,0.00111385422 C47.1841984,0.106509288 59.0719587,7.68235817 65.2991038,18.8465824 C68.2460674,24.1299927 69.9252764,30.2170576 69.9252764,36.6963227 C69.9252764,56.8667391 53.6517016,73.2362584 33.5179011,73.3915316 L33.5179011,0.00109859738 Z" id="Combined-Shape" stroke="#FFFFFF" stroke-width="2"></path>
        </g>
    </g>
</svg>