<?xml version="1.0" encoding="UTF-8"?>
<svg width="84px" height="77px" viewBox="0 0 84 77" version="1.1" xmlns="http://www.w3.org/2000/svg" xmlns:xlink="http://www.w3.org/1999/xlink">
    <!-- Generator: Sketch 47.1 (45422) - http://www.bohemiancoding.com/sketch -->
    <title>Group</title>
    <desc>Created with Sketch.</desc>
    <defs></defs>
    <g id="Page-1" stroke="none" stroke-width="1" fill="none" fill-rule="evenodd">
        <g id="Desktop-HD" transform="translate(-407.000000, -1539.000000)">
            <g id="Projects" transform="translate(241.000000, 1067.000000)">
                <g id="ProjectInstances" transform="translate(0.000000, 127.000000)">
                    <g id="Newton" transform="translate(0.000000, 300.000000)">
                        <g id="Group" transform="translate(166.666667, 45.000000)">
                            <path d="M21.3262852,66.4261341 L63.279633,66.4261341 L63.279633,66.4261341 C69.0721816,66.4261341 73.76797,71.1219225 73.76797,76.9144711 L73.76797,76.9144711 L10.8379482,76.9144711 L10.8379482,76.9144711 L10.8379482,76.9144711 C10.8379482,71.1219225 15.5337366,66.4261341 21.3262852,66.4261341 Z" id="Rectangle-4" fill="#FFFFFF"></path>
                            <path d="M31.8146221,59.7835207 L52.7912961,59.7835207 L52.7912961,59.7835207 C56.6529951,59.7835207 59.7835207,62.9140463 59.7835207,66.7757454 L59.7835207,66.7757454 L24.8223975,66.7757454 L24.8223975,66.7757454 L24.8223975,66.7757454 C24.8223975,62.9140463 27.9529231,59.7835207 31.8146221,59.7835207 Z" id="Rectangle-4" fill="#FFFFFF"></path>
                            <path d="M42.3029591,3.84572356 L42.3029591,3.84572356 L42.3029591,3.84572356 L42.3029591,3.84572356 C43.9228651,8.47402638 44.7502377,13.3424785 44.7502377,18.2460774 L44.7502377,60.8323544 L44.7502377,60.8323544 C44.7502377,62.1839491 43.6545538,63.279633 42.3029591,63.279633 L42.3029591,63.279633 L42.3029591,63.279633 C40.9513644,63.279633 39.8556805,62.1839491 39.8556805,60.8323544 L39.8556805,18.2460774 L39.8556805,18.2460774 C39.8556805,13.3424785 40.6830531,8.47402638 42.3029591,3.84572356 Z" id="Rectangle-5" fill="#FFFFFF"></path>
                            <circle id="Oval-3" fill="#FFFFFF" cx="42.3029591" cy="2.79688986" r="2.79688986"></circle>
                            <path d="M8.24818452,14.392759 L76.2509777,14.392759 L76.2509777,14.392759 C77.311088,14.392759 78.3346278,14.7803145 79.1288785,15.482454 L79.1288785,15.482454 L79.1288785,15.482454 L79.1288785,15.482454 C78.3317253,16.1343095 77.3336692,16.4904264 76.3039271,16.4904264 L8.40758039,16.4904264 L8.40758039,16.4904264 C6.98493549,16.4904264 5.5940226,16.069964 4.4096122,15.2818711 L4.4096122,15.2818711 L4.4096122,15.2818711 L4.4096122,15.2818711 C5.6046698,14.6968735 6.91762646,14.392759 8.24818452,14.392759 Z" id="Rectangle-6" fill="#FFFFFF" transform="translate(41.769245, 15.441593) rotate(9.000000) translate(-41.769245, -15.441593) "></path>
                            <path d="M9.96505357,11.1905612 L16.0422273,36.8360436 L16.0422273,36.8360436 C16.1695747,37.3734457 15.8371597,37.9123318 15.2997575,38.0396792 C15.2242034,38.0575831 15.1468211,38.0666265 15.0691746,38.0666265 L2.91482719,38.0666265 L2.91482719,38.0666265 C2.36254244,38.0666265 1.91482719,37.6189113 1.91482719,37.0666265 C1.91482719,36.98898 1.92387056,36.9115977 1.94177451,36.8360436 L8.01894822,11.1905612 L8.01894822,11.1905612 C8.14629564,10.6531591 8.68518166,10.320744 9.22258381,10.4480915 C9.59055113,10.5352882 9.87785688,10.8225939 9.96505357,11.1905612 Z" id="Triangle" stroke="#FFFFFF"></path>
                            <path d="M0,37.1287129 C0,39.0595624 3.91315701,40.6248252 8.74028081,40.6248252 C13.5674046,40.6248252 17.4805616,39.0595624 17.4805616,37.1287129 L2.66453526e-15,37.1287129 Z" id="Combined-Shape" fill="#FFFFFF"></path>
                            <path d="M75.1465717,21.9166338 L77.2197489,30.6653766 L81.2237454,47.5621162 L81.2237454,47.5621162 C81.3510929,48.0995183 81.0186778,48.6384044 80.4812757,48.7657518 C80.4057215,48.7836557 80.3283392,48.7926991 80.2506928,48.7926991 L68.0963453,48.7926991 L68.0963453,48.7926991 C67.5440606,48.7926991 67.0963453,48.3449839 67.0963453,47.7926991 C67.0963453,47.7150526 67.1053887,47.6376703 67.1232927,47.5621162 L73.2004664,21.9166338 L73.2004664,21.9166338 C73.3278138,21.3792317 73.8666998,21.0468166 74.404102,21.1741641 C74.7720693,21.2613608 75.059375,21.5486665 75.1465717,21.9166338 Z" id="Triangle" stroke="#FFFFFF"></path>
                            <path d="M65.1815182,47.8547855 C65.1815182,49.785635 69.0946752,51.3508978 73.921799,51.3508978 C78.7489228,51.3508978 82.6620798,49.785635 82.6620798,47.8547855 L65.1815182,47.8547855 Z" id="Combined-Shape" fill="#FFFFFF"></path>
                        </g>
                    </g>
                </g>
            </g>
        </g>
    </g>
</svg>