<?xml version="1.0" encoding="UTF-8"?>
<svg width="178px" height="30px" viewBox="0 0 178 30" version="1.1" xmlns="http://www.w3.org/2000/svg" xmlns:xlink="http://www.w3.org/1999/xlink">
    <!-- Generator: Sketch 47.1 (45422) - http://www.bohemiancoding.com/sketch -->
    <title>takemyspot-logo</title>
    <desc>Created with Sketch.</desc>
    <defs></defs>
    <g id="Page-1" stroke="none" stroke-width="1" fill="none" fill-rule="evenodd">
        <g id="Home" transform="translate(-71.000000, -1131.000000)" fill-rule="nonzero">
            <g id="Projects" transform="translate(35.000000, 803.000000)">
                <g id="takemyspot" transform="translate(0.000000, 266.000000)">
                    <g id="takemyspot-logo" transform="translate(36.000000, 62.000000)">
                        <g id="location-1" transform="translate(150.000000, 4.736842)" stroke="#333333" fill="#333333">
                            <path d="M15.2281076,13.7270857 L8.42105263,24.7368421 L1.61399761,13.7270857 C1.39874285,13.4244366 1.20219797,13.1068883 1.02610835,12.7762314 L0.886426595,12.5503096 L0.909998689,12.5503096 C0.328055381,11.3761147 0,10.0472158 0,8.63970589 C0,3.86812808 3.77023368,0 8.42105263,0 C13.0718716,0 16.8421053,3.86812808 16.8421053,8.63970589 C16.8421053,10.0472158 16.5140499,11.3761147 15.9321066,12.5503096 L15.9556787,12.5503096 L15.8159969,12.7762314 C15.6399073,13.1068883 15.4433624,13.4244366 15.2281076,13.7270857 Z M8.50969532,13.6416408 C11.4470546,13.6416408 13.8282548,11.1986126 13.8282548,8.18498453 C13.8282548,5.17135644 11.4470546,2.72832817 8.50969532,2.72832817 C5.57233595,2.72832817 3.19113573,5.17135644 3.19113573,8.18498453 C3.19113573,11.1986126 5.57233595,13.6416408 8.50969532,13.6416408 Z" id="Combined-Shape"></path>
                        </g>
                        <path d="M7.09786774,19.6610526 L9.30839405,19.6610526 L9.30839405,21.8421053 L6.59681511,21.8421053 C3.78697647,21.8421053 2.38207824,20.4568559 2.38207824,17.6863158 L2.38207824,7.84210526 L0.289446664,7.84210526 L0.289446664,5.66105263 L2.38207824,5.66105263 L2.38207824,1.65263158 L5.09365719,1.65263158 L5.09365719,5.66105263 L9.27892037,5.66105263 L9.27892037,7.84210526 L5.09365719,7.84210526 L5.09365719,17.6863158 C5.09365719,18.4133369 5.24102414,18.9242091 5.53576247,19.2189474 C5.83050079,19.5136857 6.35119732,19.6610526 7.09786774,19.6610526 Z M25.3968151,13.7663158 C25.3968151,11.9389382 24.8613818,10.4750932 23.7904993,9.37473684 C22.7196167,8.27438047 21.4326121,7.72421053 19.9294467,7.72421053 C18.4262813,7.72421053 17.1392766,8.25473153 16.0683941,9.31578947 C14.9975115,10.3768474 14.4620783,11.8210435 14.4620783,13.6484211 C14.4620783,15.4757986 15.0024237,16.9592925 16.0831309,18.0989474 C17.1638381,19.2386022 18.4508427,19.8084211 19.9441835,19.8084211 C21.4375243,19.8084211 22.7196167,19.2582511 23.7904993,18.1578947 C24.8613818,17.0575384 25.3968151,15.5936934 25.3968151,13.7663158 Z M13.9315519,19.7347368 C12.4578604,18.1529745 11.7210256,16.1291352 11.7210256,13.6631579 C11.7210256,11.1971806 12.4529481,9.20281463 13.9168151,7.68 C15.3806821,6.15718537 17.2227689,5.39578947 19.4431309,5.39578947 C20.8185764,5.39578947 22.0220731,5.71999674 23.0536572,6.36842105 C24.0852413,7.01684537 24.8662861,7.86174916 25.3968151,8.90315789 L25.3968151,5.66105263 L28.1083941,5.66105263 L28.1083941,21.8421053 L25.3968151,21.8421053 L25.3968151,18.5410526 C24.8662861,19.6021106 24.0852413,20.4617511 23.0536572,21.12 C22.0220731,21.7782489 20.8185764,22.1073684 19.4431309,22.1073684 C17.2424181,22.1073684 15.4052435,21.3164992 13.9315519,19.7347368 Z M35.7378677,21.8421053 L33.0557625,21.8421053 L33.0557625,0.0315789474 L35.7378677,0.0315789474 L35.7378677,12.8231579 L41.9273414,5.66105263 L45.699973,5.66105263 L38.0662888,13.7073684 L45.699973,21.8421053 L42.0747098,21.8421053 L35.7378677,14.7389474 L35.7378677,21.8421053 Z M55.4810258,22.1073684 C53.1624174,22.1073684 51.2761206,21.3410603 49.8220783,19.8084211 C48.3680359,18.2757818 47.6410256,16.2519424 47.6410256,13.7368421 C47.6410256,11.2217418 48.3778604,9.20281463 49.8515519,7.68 C51.3252435,6.15718537 53.2361016,5.39578947 55.5841837,5.39578947 C57.9322653,5.39578947 59.8185621,6.11788753 61.2431311,7.56210526 C62.6676995,9.006323 63.3799732,10.8484098 63.3799732,13.0884211 C63.3799732,13.6582485 63.3406753,14.1887695 63.2620784,14.68 L50.3820783,14.68 C50.4606751,16.2912361 50.966635,17.5635041 51.899973,18.4968421 C52.8333111,19.4301801 54.0269832,19.8968421 55.4810258,19.8968421 C56.5813821,19.8968421 57.5097937,19.6512305 58.2662889,19.16 C59.0227837,18.6687695 59.5778658,18.0203549 59.9315521,17.2147368 L62.8199732,17.2147368 C62.3090932,18.6294807 61.4298037,19.7985919 60.1820784,20.7221053 C58.9343526,21.6456186 57.3673511,22.1073684 55.4810258,22.1073684 Z M59.1062889,9.00631579 C58.1434768,8.07297779 56.9498047,7.60631579 55.5252363,7.60631579 C54.1006674,7.60631579 52.91682,8.06315332 51.9736572,8.97684211 C51.0304946,9.89053089 50.5097981,11.1431499 50.4115519,12.7347368 L60.5799732,12.7347368 C60.5603237,11.1824484 60.0691005,9.93965379 59.1062889,9.00631579 Z M69.9189205,5.66105263 L69.9189205,8.28421053 C71.0192768,6.35858684 72.7778558,5.39578947 75.19471,5.39578947 C76.4326105,5.39578947 77.5525995,5.69543558 78.55471,6.29473684 C79.55682,6.89403811 80.3133037,7.76350305 80.8241837,8.90315789 C81.41366,7.80280153 82.2143537,6.943161 83.2262889,6.32421053 C84.2382237,5.70526005 85.3925979,5.39578947 86.6894468,5.39578947 C88.5168242,5.39578947 90.0297916,5.99016947 91.2283942,7.17894737 C92.4269963,8.36772526 93.0262889,10.0624452 93.0262889,12.2631579 L93.0262889,21.8421053 L90.3736574,21.8421053 L90.3736574,12.7052632 C90.3736574,11.0743778 89.9757663,9.83649547 89.1799732,8.99157895 C88.3841795,8.14666242 87.2985763,7.72421053 85.9231311,7.72421053 C84.5476853,7.72421053 83.4620821,8.14666242 82.6662889,8.99157895 C81.8704953,9.83649547 81.4726047,11.0743778 81.4726047,12.7052632 L81.4726047,21.8421053 L78.8199732,21.8421053 L78.8199732,12.7052632 C78.8199732,11.0743778 78.4269942,9.83649547 77.6410258,8.99157895 C76.8550568,8.14666242 75.7694537,7.72421053 74.3841837,7.72421053 C72.9989137,7.72421053 71.9083979,8.14666242 71.1126047,8.99157895 C70.3168111,9.83649547 69.9189205,11.0743778 69.9189205,12.7052632 L69.9189205,21.8421053 L67.2368153,21.8421053 L67.2368153,5.66105263 L69.9189205,5.66105263 Z M102.365236,21.5768421 L95.9694468,5.66105263 L98.9168153,5.66105263 L103.868394,18.7473684 L108.908394,5.66105263 L111.678921,5.66105263 L101.923131,29.4168421 L99.1526047,29.4168421 L102.365236,21.5768421 Z M114.179973,10.2294737 C114.179973,8.87367742 114.744879,7.72912747 115.87471,6.79578947 C117.00454,5.86245147 118.468385,5.39578947 120.266289,5.39578947 C122.064193,5.39578947 123.474003,5.852627 124.495763,6.76631579 C125.517522,7.68000458 126.077516,8.93262363 126.175763,10.5242105 L123.405236,10.5242105 C123.365938,9.62034637 123.061379,8.89333611 122.491552,8.34315789 C121.921725,7.79297968 121.130855,7.51789474 120.118921,7.51789474 C119.106985,7.51789474 118.311204,7.75859411 117.731552,8.24 C117.1519,8.72140589 116.862078,9.34034711 116.862078,10.0968421 C116.862078,10.8533371 117.191198,11.4378927 117.849447,11.8505263 C118.507696,12.2631599 119.303477,12.5628061 120.236815,12.7494737 C121.170153,12.9361413 122.103477,13.1522795 123.036815,13.3978947 C123.970153,13.64351 124.765935,14.1052598 125.424184,14.7831579 C126.082433,15.461056 126.411552,16.4238534 126.411552,17.6715789 C126.411552,18.9193045 125.846645,19.9705221 124.716815,20.8252632 C123.586985,21.6800043 122.118228,22.1073684 120.310499,22.1073684 C118.502771,22.1073684 117.053663,21.6554431 115.963131,20.7515789 C114.872599,19.8477148 114.278219,18.6000079 114.179973,17.0084211 L116.950499,17.0084211 C116.989798,17.9122852 117.309093,18.6343833 117.908394,19.1747368 C118.507695,19.7150904 119.33295,19.9852632 120.384184,19.9852632 C121.435417,19.9852632 122.260672,19.7593005 122.859973,19.3073684 C123.459274,18.8554363 123.758921,18.2807053 123.758921,17.5831579 C123.758921,16.8856105 123.523133,16.3305284 123.051552,15.9178947 C122.579971,15.5052611 121.990503,15.2203517 121.283131,15.0631579 C120.575759,14.9059641 119.804538,14.7192993 118.969447,14.5031579 C118.134355,14.2870165 117.363134,14.0561416 116.655763,13.8105263 C115.948391,13.5649111 115.358923,13.1375469 114.887342,12.5284211 C114.41576,11.9192952 114.179973,11.1529871 114.179973,10.2294737 Z M142.809447,18.1136842 C143.880329,16.983854 144.415763,15.5003601 144.415763,13.6631579 C144.415763,11.8259557 143.880329,10.3768474 142.809447,9.31578947 C141.738564,8.25473153 140.451559,7.72421053 138.948394,7.72421053 C137.445228,7.72421053 136.158224,8.27438047 135.087342,9.37473684 C134.016459,10.4750932 133.481026,11.934026 133.481026,13.7515789 C133.481026,15.5691319 134.016459,17.0329769 135.087342,18.1431579 C136.158224,19.2533389 137.445228,19.8084211 138.948394,19.8084211 C140.451559,19.8084211 141.738564,19.2435144 142.809447,18.1136842 Z M139.464184,5.39578947 C141.684545,5.39578947 143.526632,6.15718537 144.990499,7.68 C146.454366,9.20281463 147.186289,11.1971806 147.186289,13.6631579 C147.186289,16.1291352 146.449454,18.1529745 144.975763,19.7347368 C143.502071,21.3164992 141.664896,22.1073684 139.464184,22.1073684 C138.088738,22.1073684 136.885241,21.7782489 135.853657,21.12 C134.822073,20.4617511 134.031204,19.6021106 133.481026,18.5410526 L133.481026,29.5052632 L130.798921,29.5052632 L130.798921,5.66105263 L133.481026,5.66105263 L133.481026,8.90315789 C134.031204,7.86174916 134.822073,7.01684537 135.853657,6.36842105 C136.885241,5.71999674 138.088738,5.39578947 139.464184,5.39578947 Z M175.531552,19.6610526 L177.742078,19.6610526 L177.742078,21.8421053 L175.030499,21.8421053 C172.220661,21.8421053 170.815763,20.4568559 170.815763,17.6863158 L170.815763,7.84210526 L168.723131,7.84210526 L168.723131,5.66105263 L170.815763,5.66105263 L170.815763,1.65263158 L173.527342,1.65263158 L173.527342,5.66105263 L177.712605,5.66105263 L177.712605,7.84210526 L173.527342,7.84210526 L173.527342,17.6863158 C173.527342,18.4133369 173.674708,18.9242091 173.969447,19.2189474 C174.264185,19.5136857 174.784882,19.6610526 175.531552,19.6610526 Z" id="takemyspot" fill="#FFFFFF"></path>
                    </g>
                </g>
            </g>
        </g>
    </g>
</svg>